<?xml version="1.0" encoding="UTF-8"?><svg xmlns="http://www.w3.org/2000/svg" viewBox="0 0 270.21 270.21"><defs><style>.d,.e{fill:#f3f2fb;}.f{fill:#f3f2ef;}.g{fill:#faf3ea;}.h{fill:#fe4820;}.i{fill:#fbf4eb;}.e{stroke:#000;stroke-miterlimit:10;stroke-width:4px;}.j{fill:#4b41e4;}</style></defs><g id="a"/><g id="b"><g id="c"><g><circle class="e" cx="135.11" cy="135.11" r="133.11"/><g><path class="d" d="M91.54,10.6c8.49-2.45,16.98-4.87,25.82-5.89C158.02,0,194.11,10.66,223.68,38.99c39.84,38.17,51.73,84.79,35.38,137.31-11.76,37.78-37.76,64.03-73.96,79.61-32.15,13.83-64.91,14.23-97.56,1.43C38.18,237.97-2.17,185.96,4.16,121.9c1.87-18.93,7.69-36.6,17.36-53,.33-.56,.55-1.19,.83-1.79,1.24-4.1,4.23-7.13,6.66-10.44,15.27-20.77,34.92-35.88,59-45.2,1.14-.44,2.23-1.1,3.54-.87Z"/><path class="j" d="M25.95,133.96c.23-59.48,49.4-108.62,108.43-108.39,60.57,.24,109.34,49.51,109.1,110.23-.24,60.26-49.76,109.06-110.78,108.3-57.72-.72-106.97-48.73-106.76-110.14Z"/><path class="g" d="M133.9,205.51c-38.45,.01-69.81-31.23-69.86-69.6-.05-38.31,31.2-69.84,69.26-69.88,38.57-.04,70.23,31.13,70.1,69-.14,39.32-30.85,70.47-69.5,70.48Z"/><path class="i" d="M225.05,139.4c0,2.75,.06,5.51-.02,8.26-.1,3.27-2.5,5.66-5.55,5.65-3.26,0-5.78-2.4-5.81-5.71-.06-5.5-.07-11.01,0-16.52,.04-3.49,2.39-5.91,5.58-5.95,3.3-.05,5.59,2.13,5.77,5.73,.14,2.84,.03,5.69,.03,8.54h.01Z"/><path d="M191.91,134.47c.58,33-25.9,59.27-57.78,59.83-29.65,.52-57.02-25.34-58.38-54.93-1.42-30.85,21.83-60.52,55.97-61.85,32.36-1.26,59.23,24.41,60.2,56.96Z"/><path class="h" d="M133.76,85.18c28.49,.09,50.77,22.69,50.72,51.43-.05,27.11-23.31,50.07-50.58,49.92-28.44-.16-50.96-22.6-50.88-50.69,.08-27.82,23.04-50.75,50.73-50.66Z"/><path d="M100.52,135.74c-.05-18.41,14.61-33.01,33.23-33.08,18.13-.06,33.13,14.89,33.14,33.03,.01,18.4-14.51,33.01-32.91,33.09-18.85,.08-33.4-14.29-33.46-33.04Z"/><path class="f" d="M149.99,136.05c0,3.04,.08,6.08-.02,9.12-.18,5.55-3.49,8.72-9.05,8.74-5.03,.02-10.07,.03-15.1-.02-5.21-.06-8.53-3.05-8.68-8.17-.19-6.36-.21-12.73-.04-19.09,.14-5.38,3.6-8.51,9-8.53,4.94-.02,9.88-.06,14.82,.03,5.62,.1,8.85,3.24,9.05,8.8,.11,3.04,.02,6.08,.02,9.12h.01Z"/></g></g></g></g></svg>